<svg width="20" height="20" viewBox="0 0 20 20" fill="none" xmlns="http://www.w3.org/2000/svg">
<path d="M13.3333 15C13.7754 15 14.1993 15.1756 14.5119 15.4882C14.8244 15.8007 15 16.2246 15 16.6667C15 17.1087 14.8244 17.5326 14.5119 17.8452C14.1993 18.1577 13.7754 18.3333 13.3333 18.3333C12.8913 18.3333 12.4674 18.1577 12.1548 17.8452C11.8423 17.5326 11.6667 17.1087 11.6667 16.6667C11.6667 16.2246 11.8423 15.8007 12.1548 15.4882C12.4674 15.1756 12.8913 15 13.3333 15ZM13.3333 15.8333C13.1123 15.8333 12.9004 15.9211 12.7441 16.0774C12.5878 16.2337 12.5 16.4457 12.5 16.6667C12.5 16.8877 12.5878 17.0996 12.7441 17.2559C12.9004 17.4122 13.1123 17.5 13.3333 17.5C13.5544 17.5 13.7663 17.4122 13.9226 17.2559C14.0789 17.0996 14.1667 16.8877 14.1667 16.6667C14.1667 16.4457 14.0789 16.2337 13.9226 16.0774C13.7663 15.9211 13.5544 15.8333 13.3333 15.8333ZM5.83334 15C6.27537 15 6.69929 15.1756 7.01185 15.4882C7.32441 15.8007 7.50001 16.2246 7.50001 16.6667C7.50001 17.1087 7.32441 17.5326 7.01185 17.8452C6.69929 18.1577 6.27537 18.3333 5.83334 18.3333C5.39132 18.3333 4.96739 18.1577 4.65483 17.8452C4.34227 17.5326 4.16668 17.1087 4.16668 16.6667C4.16668 16.2246 4.34227 15.8007 4.65483 15.4882C4.96739 15.1756 5.39132 15 5.83334 15ZM5.83334 15.8333C5.61233 15.8333 5.40037 15.9211 5.24409 16.0774C5.08781 16.2337 5.00001 16.4457 5.00001 16.6667C5.00001 16.8877 5.08781 17.0996 5.24409 17.2559C5.40037 17.4122 5.61233 17.5 5.83334 17.5C6.05436 17.5 6.26632 17.4122 6.4226 17.2559C6.57888 17.0996 6.66668 16.8877 6.66668 16.6667C6.66668 16.4457 6.57888 16.2337 6.4226 16.0774C6.26632 15.9211 6.05436 15.8333 5.83334 15.8333ZM15 5H3.55834L5.68334 10H12.5C12.775 10 13.0167 9.86667 13.1667 9.66667L15.6667 6.33333C15.775 6.19167 15.8333 6.01667 15.8333 5.83333C15.8333 5.61232 15.7455 5.40036 15.5893 5.24408C15.433 5.0878 15.221 5 15 5ZM12.5 10.8333H5.72501L5.08334 12.1333L5.00001 12.5C5.00001 12.721 5.08781 12.933 5.24409 13.0893C5.40037 13.2455 5.61233 13.3333 5.83334 13.3333H15V14.1667H5.83334C5.39132 14.1667 4.96739 13.9911 4.65483 13.6785C4.34227 13.3659 4.16668 12.942 4.16668 12.5C4.16643 12.2172 4.23812 11.9391 4.37501 11.6917L4.97501 10.4667L1.95001 3.33333H0.833344V2.5H2.50001L3.20834 4.16667H15C15.442 4.16667 15.866 4.34226 16.1785 4.65482C16.4911 4.96738 16.6667 5.39131 16.6667 5.83333C16.6667 6.25 16.525 6.6 16.2917 6.88333L13.8667 10.125C13.5667 10.55 13.0667 10.8333 12.5 10.8333Z" fill="white"/>
</svg>
