<svg width="28" height="28" viewBox="0 0 28 28" fill="none" xmlns="http://www.w3.org/2000/svg">
<path d="M18.6666 21C19.2855 21 19.879 21.2458 20.3165 21.6834C20.7541 22.121 21 22.7145 21 23.3333C21 23.9522 20.7541 24.5457 20.3165 24.9832C19.879 25.4208 19.2855 25.6667 18.6666 25.6667C18.0478 25.6667 17.4543 25.4208 17.0167 24.9832C16.5791 24.5457 16.3333 23.9522 16.3333 23.3333C16.3333 22.7145 16.5791 22.121 17.0167 21.6834C17.4543 21.2458 18.0478 21 18.6666 21ZM18.6666 22.1667C18.3572 22.1667 18.0605 22.2896 17.8417 22.5084C17.6229 22.7272 17.5 23.0239 17.5 23.3333C17.5 23.6428 17.6229 23.9395 17.8417 24.1583C18.0605 24.3771 18.3572 24.5 18.6666 24.5C18.976 24.5 19.2728 24.3771 19.4916 24.1583C19.7104 23.9395 19.8333 23.6428 19.8333 23.3333C19.8333 23.0239 19.7104 22.7272 19.4916 22.5084C19.2728 22.2896 18.976 22.1667 18.6666 22.1667ZM8.16663 21C8.78546 21 9.37896 21.2458 9.81654 21.6834C10.2541 22.121 10.5 22.7145 10.5 23.3333C10.5 23.9522 10.2541 24.5457 9.81654 24.9832C9.37896 25.4208 8.78546 25.6667 8.16663 25.6667C7.54779 25.6667 6.95429 25.4208 6.51671 24.9832C6.07912 24.5457 5.83329 23.9522 5.83329 23.3333C5.83329 22.7145 6.07912 22.121 6.51671 21.6834C6.95429 21.2458 7.54779 21 8.16663 21ZM8.16663 22.1667C7.85721 22.1667 7.56046 22.2896 7.34167 22.5084C7.12288 22.7272 6.99996 23.0239 6.99996 23.3333C6.99996 23.6428 7.12288 23.9395 7.34167 24.1583C7.56046 24.3771 7.85721 24.5 8.16663 24.5C8.47605 24.5 8.77279 24.3771 8.99158 24.1583C9.21038 23.9395 9.33329 23.6428 9.33329 23.3333C9.33329 23.0239 9.21038 22.7272 8.99158 22.5084C8.77279 22.2896 8.47605 22.1667 8.16663 22.1667ZM21 7H4.98163L7.95663 14H17.5C17.885 14 18.2233 13.8133 18.4333 13.5333L21.9333 8.86667C22.085 8.66833 22.1666 8.42333 22.1666 8.16667C22.1666 7.85725 22.0437 7.5605 21.8249 7.34171C21.6061 7.12292 21.3094 7 21 7ZM17.5 15.1667H8.01496L7.11663 16.9867L6.99996 17.5C6.99996 17.8094 7.12288 18.1062 7.34167 18.325C7.56046 18.5437 7.85721 18.6667 8.16663 18.6667H21V19.8333H8.16663C7.54779 19.8333 6.95429 19.5875 6.51671 19.1499C6.07912 18.7123 5.83329 18.1188 5.83329 17.5C5.83295 17.1041 5.93332 16.7147 6.12496 16.3683L6.96496 14.6533L2.72996 4.66667H1.16663V3.5H3.49996L4.49163 5.83333H21C21.6188 5.83333 22.2123 6.07917 22.6499 6.51675C23.0875 6.95434 23.3333 7.54783 23.3333 8.16667C23.3333 8.75 23.135 9.24 22.8083 9.63667L19.4133 14.175C18.9933 14.77 18.2933 15.1667 17.5 15.1667Z" fill="#7E7D7D"/>
</svg>
