<svg width="16" height="16" viewBox="0 0 16 16" fill="none" xmlns="http://www.w3.org/2000/svg">
<g clip-path="url(#clip0_1_195)">
<path fill-rule="evenodd" clip-rule="evenodd" d="M8 16C5.87827 16 3.84344 15.1571 2.34315 13.6569C0.842855 12.1566 0 10.1217 0 8C0 5.87827 0.842855 3.84344 2.34315 2.34315C3.84344 0.842855 5.87827 0 8 0C10.1217 0 12.1566 0.842855 13.6569 2.34315C15.1571 3.84344 16 5.87827 16 8C16 10.1217 15.1571 12.1566 13.6569 13.6569C12.1566 15.1571 10.1217 16 8 16ZM11.65 5.143L6.91 9.8L4.35 7.286C4.25489 7.19538 4.12793 7.14583 3.99658 7.14807C3.86523 7.15031 3.74003 7.20415 3.64806 7.29796C3.55609 7.39177 3.50474 7.51801 3.5051 7.64938C3.50546 7.78075 3.55751 7.9067 3.65 8L6.559 10.857C6.65246 10.9486 6.77812 10.9999 6.909 10.9999C7.03988 10.9999 7.16554 10.9486 7.259 10.857L12.35 5.857C12.398 5.81129 12.4364 5.75651 12.463 5.69582C12.4896 5.63514 12.5039 5.56977 12.505 5.50352C12.5062 5.43727 12.4941 5.37145 12.4696 5.3099C12.445 5.24834 12.4085 5.19228 12.3621 5.14496C12.3157 5.09765 12.2604 5.06003 12.1994 5.03428C12.1383 5.00854 12.0727 4.99518 12.0065 4.995C11.9402 4.99482 11.8746 5.00781 11.8134 5.03322C11.7522 5.05862 11.6966 5.09594 11.65 5.143Z" fill="#00C6FF"/>
</g>
<defs>
<clipPath id="clip0_1_195">
<rect width="16" height="16" fill="white"/>
</clipPath>
</defs>
</svg>
